%
M48
M72
T01C0.0320
T02C0.0360
%
T01
X19000Y4600
X19000Y5600
X19000Y6600
X19000Y7600
X22000Y7600
X23100Y6800
X24100Y6800
X22000Y6600
X22000Y5600
X23400Y4800
X24400Y4800
X22600Y4000
X22000Y4600
X22600Y3000
X21000Y3000
X20000Y3000
X20200Y9000
X19200Y9000
X21300Y9000
X22300Y9000
T02
X5262Y3573
X6262Y3573
X6261Y4937
X5261Y4937
X7686Y5820
X6269Y6232
X5269Y6232
X7686Y6820
X6320Y7556
X5320Y7556
X5294Y9072
X6294Y9072
X13588Y5583
X13588Y4583
X16500Y4300
X16500Y5300
X16500Y6300
X16849Y2781
X16849Y1781
M30
