<svg xmlns="http://www.w3.org/2000/svg" version="1.1" width="363.7mm" height="142.7mm" viewBox = " 0 0 1288.701847 505.63033699999994" >
<!-- Front--> 
<g transform="translate(22.5000185, 22.5000185) " > 
<polygon style="stroke:#000000; fill:none; stroke-width:0.90000074" points="0, 0 23.301515222, 0 23.301515222, 10.62993 46.06303, 10.62993 46.06303, 0 64.04958022199999, 0 64.04958022199999, 10.62993 81.49613, 10.62993 81.49613, 0 99.48268022199998, 0 99.48268022199998, 10.62993 116.92922999999999, 10.62993 116.92922999999999, 0 134.915780222, 0 134.915780222, 10.62993 152.36233, 10.62993 152.36233, 0 170.34888022199996, 0 170.34888022199996, 10.62993 187.79542999999998, 10.62993 187.79542999999998, 0 205.78198022199996, 0 205.78198022199996, 10.62993 223.22852999999998, 10.62993 223.22852999999998, 0 241.21508022199998, 0 241.21508022199998, 10.62993 258.66162999999995, 10.62993 258.66162999999995, 0 276.64818022199995, 0 276.64818022199995, 10.62993 294.09472999999997, 10.62993 294.09472999999997, 0 312.08128022200003, 0 312.08128022200003, 10.62993 329.52783, 10.62993 329.52783, 0 347.514380222, 0 347.514380222, 10.62993 364.96092999999996, 10.62993 364.96092999999996, 0 382.94748022199997, 0 382.94748022199997, 10.62993 400.39402999999993, 10.62993 400.39402999999993, 0 418.38058022199994, 0 418.38058022199994, 10.62993 441.1420949999999, 10.62993 441.1420949999999, 0 464.443610222, 0 464.443610222, 23.301515222 453.813680222, 23.301515222 453.813680222, 46.06303 464.443610222, 46.06303 464.443610222, 64.04958022199999 453.813680222, 64.04958022199999 453.813680222, 81.49613 464.443610222, 81.49613 464.443610222, 99.48268022199998 453.813680222, 99.48268022199998 453.813680222, 122.24419499999999 464.443610222, 122.24419499999999 464.44361022199996, 145.545710222 441.1420949999999, 145.545710222 441.1420949999999, 134.915780222 418.38058022199994, 134.915780222 418.38058022199994, 145.545710222 400.39402999999993, 145.545710222 400.39402999999993, 134.915780222 382.94748022199997, 134.915780222 382.94748022199997, 145.545710222 364.96092999999996, 145.545710222 364.96092999999996, 134.915780222 347.514380222, 134.915780222 347.514380222, 145.545710222 329.52783, 145.545710222 329.52783, 134.915780222 312.08128022200003, 134.915780222 312.08128022200003, 145.545710222 294.09472999999997, 145.545710222 294.09472999999997, 134.915780222 276.64818022199995, 134.915780222 276.64818022199995, 145.545710222 258.66162999999995, 145.545710222 258.66162999999995, 134.915780222 241.21508022199998, 134.915780222 241.21508022199998, 145.545710222 223.22852999999998, 145.545710222 223.22852999999998, 134.915780222 205.78198022199996, 134.915780222 205.78198022199996, 145.545710222 187.79542999999998, 145.545710222 187.79542999999998, 134.915780222 170.34888022199996, 134.915780222 170.34888022199996, 145.545710222 152.36233, 145.545710222 152.36233, 134.915780222 134.915780222, 134.915780222 134.915780222, 145.545710222 116.92922999999999, 145.545710222 116.92922999999999, 134.915780222 99.48268022199998, 134.915780222 99.48268022199998, 145.545710222 81.49613, 145.545710222 81.49613, 134.915780222 64.04958022199999, 134.915780222 64.04958022199999, 145.545710222 46.06303, 145.545710222 46.06303, 134.915780222 23.301515222, 134.915780222 23.301515222, 145.545710222 0, 145.545710222 0, 122.24419499999999 10.62993, 122.24419499999999 10.62993, 99.48268022199998 0, 99.48268022199998 0, 81.49613 10.62993, 81.49613 10.62993, 64.04958022199999 0, 64.04958022199999 0, 46.06303 10.62993, 46.06303 10.62993, 23.301515222 0, 23.301515222 "/> 
</g>
<!-- Back--> 
<g transform="translate(486.94362872199997, 22.5000185) " > 
<polygon style="stroke:#000000; fill:none; stroke-width:0.90000074" points="0, 0 23.301515222, 0 23.301515222, 10.62993 46.06303, 10.62993 46.06303, 0 64.04958022199999, 0 64.04958022199999, 10.62993 81.49613, 10.62993 81.49613, 0 99.48268022199998, 0 99.48268022199998, 10.62993 116.92922999999999, 10.62993 116.92922999999999, 0 134.915780222, 0 134.915780222, 10.62993 152.36233, 10.62993 152.36233, 0 170.34888022199996, 0 170.34888022199996, 10.62993 187.79542999999998, 10.62993 187.79542999999998, 0 205.78198022199996, 0 205.78198022199996, 10.62993 223.22852999999998, 10.62993 223.22852999999998, 0 241.21508022199998, 0 241.21508022199998, 10.62993 258.66162999999995, 10.62993 258.66162999999995, 0 276.64818022199995, 0 276.64818022199995, 10.62993 294.09472999999997, 10.62993 294.09472999999997, 0 312.08128022200003, 0 312.08128022200003, 10.62993 329.52783, 10.62993 329.52783, 0 347.514380222, 0 347.514380222, 10.62993 364.96092999999996, 10.62993 364.96092999999996, 0 382.94748022199997, 0 382.94748022199997, 10.62993 400.39402999999993, 10.62993 400.39402999999993, 0 418.38058022199994, 0 418.38058022199994, 10.62993 441.1420949999999, 10.62993 441.1420949999999, 0 464.443610222, 0 464.443610222, 23.301515222 453.813680222, 23.301515222 453.813680222, 46.06303 464.443610222, 46.06303 464.443610222, 64.04958022199999 453.813680222, 64.04958022199999 453.813680222, 81.49613 464.443610222, 81.49613 464.443610222, 99.48268022199998 453.813680222, 99.48268022199998 453.813680222, 122.24419499999999 464.443610222, 122.24419499999999 464.44361022199996, 145.545710222 441.1420949999999, 145.545710222 441.1420949999999, 134.915780222 418.38058022199994, 134.915780222 418.38058022199994, 145.545710222 400.39402999999993, 145.545710222 400.39402999999993, 134.915780222 382.94748022199997, 134.915780222 382.94748022199997, 145.545710222 364.96092999999996, 145.545710222 364.96092999999996, 134.915780222 347.514380222, 134.915780222 347.514380222, 145.545710222 329.52783, 145.545710222 329.52783, 134.915780222 312.08128022200003, 134.915780222 312.08128022200003, 145.545710222 294.09472999999997, 145.545710222 294.09472999999997, 134.915780222 276.64818022199995, 134.915780222 276.64818022199995, 145.545710222 258.66162999999995, 145.545710222 258.66162999999995, 134.915780222 241.21508022199998, 134.915780222 241.21508022199998, 145.545710222 223.22852999999998, 145.545710222 223.22852999999998, 134.915780222 205.78198022199996, 134.915780222 205.78198022199996, 145.545710222 187.79542999999998, 145.545710222 187.79542999999998, 134.915780222 170.34888022199996, 134.915780222 170.34888022199996, 145.545710222 152.36233, 145.545710222 152.36233, 134.915780222 134.915780222, 134.915780222 134.915780222, 145.545710222 116.92922999999999, 145.545710222 116.92922999999999, 134.915780222 99.48268022199998, 134.915780222 99.48268022199998, 145.545710222 81.49613, 145.545710222 81.49613, 134.915780222 64.04958022199999, 134.915780222 64.04958022199999, 145.545710222 46.06303, 145.545710222 46.06303, 134.915780222 23.301515222, 134.915780222 23.301515222, 145.545710222 0, 145.545710222 0, 122.24419499999999 10.62993, 122.24419499999999 10.62993, 99.48268022199998 0, 99.48268022199998 0, 81.49613 10.62993, 81.49613 10.62993, 64.04958022199999 0, 64.04958022199999 0, 46.06303 10.62993, 46.06303 10.62993, 23.301515222 0, 23.301515222 "/> 
</g>
<!-- Left--> 
<g transform="translate(951.3872389439998, 22.5000185) " > 
<polygon style="stroke:#000000; fill:none; stroke-width:0.90000074" points="10.62993, 0 30.388135222, 0 30.388135222, 10.62993 60.23627, 10.62993 60.23627, 0 78.222820222, 0 78.222820222, 10.62993 95.66936999999999, 10.62993 95.66936999999999, 0 113.65592022199999, 0 113.65592022199999, 10.62993 131.10246999999998, 10.62993 131.10246999999998, 0 149.089020222, 0 149.089020222, 10.62993 166.53556999999998, 10.62993 166.53556999999998, 0 184.52212022199998, 0 184.52212022199998, 10.62993 201.96866999999997, 10.62993 201.96866999999997, 0 219.95522022199995, 0 219.95522022199995, 10.62993 237.40176999999997, 10.62993 237.40176999999997, 0 255.38832022199998, 0 255.38832022199998, 10.62993 285.236455, 10.62993 285.236455, 0 304.994660222, 0 304.994660222, 23.031515 315.624590222, 23.031515 315.624590222, 46.333030222 304.994660222, 46.333030222 304.994660222, 63.779579999999996 315.624590222, 63.779579999999996 315.624590222, 81.76613022199999 304.994660222, 81.76613022199999 304.994660222, 99.21267999999999 315.624590222, 99.21267999999999 315.624590222, 122.51419522199998 304.994660222, 122.51419522199998 304.994660222, 145.545710222 285.236455, 145.545710222 285.236455, 134.915780222 255.38832022199998, 134.915780222 255.38832022199998, 145.545710222 237.40176999999997, 145.545710222 237.40176999999997, 134.915780222 219.95522022199995, 134.915780222 219.95522022199995, 145.545710222 201.96866999999997, 145.545710222 201.96866999999997, 134.915780222 184.52212022199998, 134.915780222 184.52212022199998, 145.545710222 166.53556999999998, 145.545710222 166.53556999999998, 134.915780222 149.089020222, 134.915780222 149.089020222, 145.545710222 131.10246999999998, 145.545710222 131.10246999999998, 134.915780222 113.65592022199999, 134.915780222 113.65592022199999, 145.545710222 95.66936999999999, 145.545710222 95.66936999999999, 134.915780222 78.222820222, 134.915780222 78.222820222, 145.545710222 60.23627, 145.545710222 60.23627, 134.915780222 30.388135222, 134.915780222 30.388135222, 145.545710222 10.62993, 145.545710222 10.62993, 122.51419522199998 0, 122.51419522199998 0, 99.21267999999999 10.62993, 99.21267999999999 10.62993, 81.76613022199999 0, 81.76613022199999 0, 63.779579999999996 10.62993, 63.779579999999996 10.62993, 46.333030222 0, 46.333030222 0, 23.031515 10.62993, 23.031515 "/> 
</g>
<!-- Right--> 
<g transform="translate(951.3872389439998, 168.045728722) " > 
<polygon style="stroke:#000000; fill:none; stroke-width:0.90000074" points="10.62993, 0 30.388135222, 0 30.388135222, 10.62993 60.23627, 10.62993 60.23627, 0 78.222820222, 0 78.222820222, 10.62993 95.66936999999999, 10.62993 95.66936999999999, 0 113.65592022199999, 0 113.65592022199999, 10.62993 131.10246999999998, 10.62993 131.10246999999998, 0 149.089020222, 0 149.089020222, 10.62993 166.53556999999998, 10.62993 166.53556999999998, 0 184.52212022199998, 0 184.52212022199998, 10.62993 201.96866999999997, 10.62993 201.96866999999997, 0 219.95522022199995, 0 219.95522022199995, 10.62993 237.40176999999997, 10.62993 237.40176999999997, 0 255.38832022199998, 0 255.38832022199998, 10.62993 285.236455, 10.62993 285.236455, 0 304.994660222, 0 304.994660222, 23.031515 315.624590222, 23.031515 315.624590222, 46.333030222 304.994660222, 46.333030222 304.994660222, 63.779579999999996 315.624590222, 63.779579999999996 315.624590222, 81.76613022199999 304.994660222, 81.76613022199999 304.994660222, 99.21267999999999 315.624590222, 99.21267999999999 315.624590222, 122.51419522199998 304.994660222, 122.51419522199998 304.994660222, 145.545710222 285.236455, 145.545710222 285.236455, 134.915780222 255.38832022199998, 134.915780222 255.38832022199998, 145.545710222 237.40176999999997, 145.545710222 237.40176999999997, 134.915780222 219.95522022199995, 134.915780222 219.95522022199995, 145.545710222 201.96866999999997, 145.545710222 201.96866999999997, 134.915780222 184.52212022199998, 134.915780222 184.52212022199998, 145.545710222 166.53556999999998, 145.545710222 166.53556999999998, 134.915780222 149.089020222, 134.915780222 149.089020222, 145.545710222 131.10246999999998, 145.545710222 131.10246999999998, 134.915780222 113.65592022199999, 134.915780222 113.65592022199999, 145.545710222 95.66936999999999, 145.545710222 95.66936999999999, 134.915780222 78.222820222, 134.915780222 78.222820222, 145.545710222 60.23627, 145.545710222 60.23627, 134.915780222 30.388135222, 134.915780222 30.388135222, 145.545710222 10.62993, 145.545710222 10.62993, 122.51419522199998 0, 122.51419522199998 0, 99.21267999999999 10.62993, 99.21267999999999 10.62993, 81.76613022199999 0, 81.76613022199999 0, 63.779579999999996 10.62993, 63.779579999999996 10.62993, 46.333030222 0, 46.333030222 0, 23.031515 10.62993, 23.031515 "/> 
</g>
<!-- Top--> 
<g transform="translate(22.5000185, 168.045728722) " > 
<polygon style="stroke:#000000; fill:none; stroke-width:0.90000074" points="10.62993, 10.62993 23.031515, 10.62993 23.031515, 0 46.333030222, 0 46.333030222, 10.62993 63.779579999999996, 10.62993 63.779579999999996, 0 81.76613022199999, 0 81.76613022199999, 10.62993 99.21267999999999, 10.62993 99.21267999999999, 0 117.19923022199998, 0 117.19923022199998, 10.62993 134.64578, 10.62993 134.64578, 0 152.63233022199998, 0 152.63233022199998, 10.62993 170.07887999999997, 10.62993 170.07887999999997, 0 188.06543022199997, 0 188.06543022199997, 10.62993 205.51197999999997, 10.62993 205.51197999999997, 0 223.49853022199997, 0 223.49853022199997, 10.62993 240.94508, 10.62993 240.94508, 0 258.93163022199997, 0 258.93163022199997, 10.62993 276.37817999999993, 10.62993 276.37817999999993, 0 294.364730222, 0 294.364730222, 10.62993 311.81128, 10.62993 311.81128, 0 329.797830222, 0 329.797830222, 10.62993 347.24438, 10.62993 347.24438, 0 365.230930222, 0 365.230930222, 10.62993 382.67747999999995, 10.62993 382.67747999999995, 0 400.66403022199995, 0 400.66403022199995, 10.62993 418.1105799999999, 10.62993 418.1105799999999, 0 441.41209522199995, 0 441.41209522199995, 10.62993 453.813680222, 10.62993 453.813680222, 30.118135 464.443610222, 30.118135 464.443610222, 60.506270222 453.813680222, 60.506270222 453.813680222, 77.95282 464.443610222, 77.95282 464.443610222, 95.93937022199998 453.813680222, 95.93937022199998 453.813680222, 113.38592 464.443610222, 113.38592 464.443610222, 131.37247022199998 453.813680222, 131.37247022199998 453.813680222, 148.81902 464.443610222, 148.81902 464.443610222, 166.80557022199997 453.813680222, 166.80557022199997 453.813680222, 184.25212 464.443610222, 184.25212 464.443610222, 202.23867022199997 453.813680222, 202.23867022199997 453.813680222, 219.68521999999996 464.443610222, 219.68521999999996 464.443610222, 237.67177022199996 453.813680222, 237.67177022199996 453.813680222, 255.11831999999998 464.443610222, 255.11831999999998 464.443610222, 285.506455222 453.813680222, 285.506455222 453.81368022199996, 304.994660222 441.41209522199995, 304.994660222 441.41209522199995, 315.624590222 418.1105799999999, 315.624590222 418.1105799999999, 304.994660222 400.66403022199995, 304.994660222 400.66403022199995, 315.624590222 382.67747999999995, 315.624590222 382.67747999999995, 304.994660222 365.230930222, 304.994660222 365.230930222, 315.624590222 347.24438, 315.624590222 347.24438, 304.994660222 329.797830222, 304.994660222 329.797830222, 315.624590222 311.81128, 315.624590222 311.81128, 304.994660222 294.364730222, 304.994660222 294.364730222, 315.624590222 276.37817999999993, 315.624590222 276.37817999999993, 304.994660222 258.93163022199997, 304.994660222 258.93163022199997, 315.624590222 240.94508, 315.624590222 240.94508, 304.994660222 223.49853022199997, 304.994660222 223.49853022199997, 315.624590222 205.51197999999997, 315.624590222 205.51197999999997, 304.994660222 188.06543022199997, 304.994660222 188.06543022199997, 315.624590222 170.07887999999997, 315.624590222 170.07887999999997, 304.994660222 152.63233022199998, 304.994660222 152.63233022199998, 315.624590222 134.64578, 315.624590222 134.64578, 304.994660222 117.19923022199998, 304.994660222 117.19923022199998, 315.624590222 99.21267999999999, 315.624590222 99.21267999999999, 304.994660222 81.76613022199999, 304.994660222 81.76613022199999, 315.624590222 63.779579999999996, 315.624590222 63.779579999999996, 304.994660222 46.333030222, 304.994660222 46.333030222, 315.624590222 23.031515, 315.624590222 23.031515, 304.994660222 10.62993, 304.994660222 10.62993, 285.506455222 0, 285.506455222 0, 255.11831999999998 10.62993, 255.11831999999998 10.62993, 237.67177022199996 0, 237.67177022199996 0, 219.68521999999996 10.62993, 219.68521999999996 10.62993, 202.23867022199997 0, 202.23867022199997 0, 184.25212 10.62993, 184.25212 10.62993, 166.80557022199997 0, 166.80557022199997 0, 148.81902 10.62993, 148.81902 10.62993, 131.37247022199998 0, 131.37247022199998 0, 113.38592 10.62993, 113.38592 10.62993, 95.93937022199998 0, 95.93937022199998 0, 77.95282 10.62993, 77.95282 10.62993, 60.506270222 0, 60.506270222 0, 30.118135 10.62993, 30.118135 "/> 
</g>
<!-- Bottom--> 
<g transform="translate(486.94362872199997, 168.045728722) " > 
<polygon style="stroke:#000000; fill:none; stroke-width:0.90000074" points="10.62993, 10.62993 23.031515, 10.62993 23.031515, 0 46.333030222, 0 46.333030222, 10.62993 63.779579999999996, 10.62993 63.779579999999996, 0 81.76613022199999, 0 81.76613022199999, 10.62993 99.21267999999999, 10.62993 99.21267999999999, 0 117.19923022199998, 0 117.19923022199998, 10.62993 134.64578, 10.62993 134.64578, 0 152.63233022199998, 0 152.63233022199998, 10.62993 170.07887999999997, 10.62993 170.07887999999997, 0 188.06543022199997, 0 188.06543022199997, 10.62993 205.51197999999997, 10.62993 205.51197999999997, 0 223.49853022199997, 0 223.49853022199997, 10.62993 240.94508, 10.62993 240.94508, 0 258.93163022199997, 0 258.93163022199997, 10.62993 276.37817999999993, 10.62993 276.37817999999993, 0 294.364730222, 0 294.364730222, 10.62993 311.81128, 10.62993 311.81128, 0 329.797830222, 0 329.797830222, 10.62993 347.24438, 10.62993 347.24438, 0 365.230930222, 0 365.230930222, 10.62993 382.67747999999995, 10.62993 382.67747999999995, 0 400.66403022199995, 0 400.66403022199995, 10.62993 418.1105799999999, 10.62993 418.1105799999999, 0 441.41209522199995, 0 441.41209522199995, 10.62993 453.813680222, 10.62993 453.813680222, 30.118135 464.443610222, 30.118135 464.443610222, 60.506270222 453.813680222, 60.506270222 453.813680222, 77.95282 464.443610222, 77.95282 464.443610222, 95.93937022199998 453.813680222, 95.93937022199998 453.813680222, 113.38592 464.443610222, 113.38592 464.443610222, 131.37247022199998 453.813680222, 131.37247022199998 453.813680222, 148.81902 464.443610222, 148.81902 464.443610222, 166.80557022199997 453.813680222, 166.80557022199997 453.813680222, 184.25212 464.443610222, 184.25212 464.443610222, 202.23867022199997 453.813680222, 202.23867022199997 453.813680222, 219.68521999999996 464.443610222, 219.68521999999996 464.443610222, 237.67177022199996 453.813680222, 237.67177022199996 453.813680222, 255.11831999999998 464.443610222, 255.11831999999998 464.443610222, 285.506455222 453.813680222, 285.506455222 453.81368022199996, 304.994660222 441.41209522199995, 304.994660222 441.41209522199995, 315.624590222 418.1105799999999, 315.624590222 418.1105799999999, 304.994660222 400.66403022199995, 304.994660222 400.66403022199995, 315.624590222 382.67747999999995, 315.624590222 382.67747999999995, 304.994660222 365.230930222, 304.994660222 365.230930222, 315.624590222 347.24438, 315.624590222 347.24438, 304.994660222 329.797830222, 304.994660222 329.797830222, 315.624590222 311.81128, 315.624590222 311.81128, 304.994660222 294.364730222, 304.994660222 294.364730222, 315.624590222 276.37817999999993, 315.624590222 276.37817999999993, 304.994660222 258.93163022199997, 304.994660222 258.93163022199997, 315.624590222 240.94508, 315.624590222 240.94508, 304.994660222 223.49853022199997, 304.994660222 223.49853022199997, 315.624590222 205.51197999999997, 315.624590222 205.51197999999997, 304.994660222 188.06543022199997, 304.994660222 188.06543022199997, 315.624590222 170.07887999999997, 315.624590222 170.07887999999997, 304.994660222 152.63233022199998, 304.994660222 152.63233022199998, 315.624590222 134.64578, 315.624590222 134.64578, 304.994660222 117.19923022199998, 304.994660222 117.19923022199998, 315.624590222 99.21267999999999, 315.624590222 99.21267999999999, 304.994660222 81.76613022199999, 304.994660222 81.76613022199999, 315.624590222 63.779579999999996, 315.624590222 63.779579999999996, 304.994660222 46.333030222, 304.994660222 46.333030222, 315.624590222 23.031515, 315.624590222 23.031515, 304.994660222 10.62993, 304.994660222 10.62993, 285.506455222 0, 285.506455222 0, 255.11831999999998 10.62993, 255.11831999999998 10.62993, 237.67177022199996 0, 237.67177022199996 0, 219.68521999999996 10.62993, 219.68521999999996 10.62993, 202.23867022199997 0, 202.23867022199997 0, 184.25212 10.62993, 184.25212 10.62993, 166.80557022199997 0, 166.80557022199997 0, 148.81902 10.62993, 148.81902 10.62993, 131.37247022199998 0, 131.37247022199998 0, 113.38592 10.62993, 113.38592 10.62993, 95.93937022199998 0, 95.93937022199998 0, 77.95282 10.62993, 77.95282 10.62993, 60.506270222 0, 60.506270222 0, 30.118135 10.62993, 30.118135 "/> 
</g></svg>