%
M48
M72
T01C0.0360
T02C0.0390
T03C0.0400
%
T01
X2566Y4485
X2566Y5485
X3566Y5485
X3566Y4485
X3576Y6931
X2576Y6931
X2577Y8476
X3577Y8476
X1180Y10866
X1180Y11866
X3441Y13996
X6441Y13996
X19064Y4479
X20064Y4479
X20064Y3479
X19064Y3479
X22248Y9008
X23248Y9008
X23397Y10491
X24397Y10491
X23918Y12165
X22918Y12165
T02
X16134Y15073
X14364Y15073
X14364Y17633
X16134Y17633
X13985Y21620
X12215Y21620
X10385Y21620
X8615Y21620
X6685Y20920
X4915Y20920
X3085Y22180
X1315Y22180
X1315Y19620
X3085Y19620
X4915Y23480
X6685Y23480
X8615Y24180
X10385Y24180
X12215Y24180
X13985Y24180
X16015Y24780
X17785Y24780
X17785Y22220
X16015Y22220
T03
X21767Y4537
X21767Y3537
X21767Y2537
X22767Y2537
X22767Y3537
X22767Y4537
M30
