%
M48
M72
T01C0.0360
T02C0.0390
T03C0.0400
%
T01
X2566Y4485
X3566Y4485
X3566Y5485
X2566Y5485
X2576Y6931
X3576Y6931
X3577Y8476
X2577Y8476
X1180Y10866
X1180Y11866
X3441Y13996
X6441Y13996
X9311Y17888
X10311Y17888
X11311Y17888
X12311Y17888
X13311Y17888
X14311Y17888
X15311Y17888
X16311Y17888
X16311Y18888
X15311Y18888
X14311Y18888
X13311Y18888
X12311Y18888
X11311Y18888
X10311Y18888
X9311Y18888
X22248Y9008
X23248Y9008
X23397Y10491
X24397Y10491
X23918Y12165
X22918Y12165
X20064Y4479
X19064Y4479
X19064Y3479
X20064Y3479
T02
X16134Y14073
X14364Y14073
X14364Y16633
X16134Y16633
T03
X21767Y4537
X22767Y4537
X22767Y3537
X21767Y3537
X21767Y2537
X22767Y2537
M30
